HIERARCHY
ROOT Hips
{
	OFFSET 0.000000 0.000000 0.000000
	CHANNELS 6 Xposition Yposition Zposition Xrotation Yrotation Zrotation
	JOINT LeftUpLeg_virtual
	{
		OFFSET 0.000000 0.000000 0.000000
		CHANNELS 3 Xrotation Yrotation Zrotation
		JOINT LeftUpLeg
		{
			OFFSET 13.026900 -6.336304 -1.092800
			CHANNELS 3 Xrotation Yrotation Zrotation
			JOINT LeftLeg
			{
				OFFSET 0.524474 -46.096886 9.782700
				CHANNELS 3 Xrotation Yrotation Zrotation
				JOINT LeftFoot
				{
					OFFSET -0.524474 -53.427422 -12.948200
					CHANNELS 3 Xrotation Yrotation Zrotation
					JOINT LeftToeBase
					{
						OFFSET 0.192200 -14.009700 16.364100
						CHANNELS 3 Xrotation Yrotation Zrotation
						JOINT LeftToe_End
						{
							OFFSET -1.784700 -0.561700 9.474800
							CHANNELS 3 Xrotation Yrotation Zrotation
							End Site
							{
								OFFSET 0 0 0
							}
						}
					}
				}
			}
		}
	}
	JOINT RightUpLeg_virtual
	{
		OFFSET 0.000000 0.000000 0.000000
		CHANNELS 3 Xrotation Yrotation Zrotation
		JOINT RightUpLeg
		{
			OFFSET -12.883000 -6.336304 -1.092800
			CHANNELS 3 Xrotation Yrotation Zrotation
			JOINT RightLeg
			{
				OFFSET -0.524587 -46.096825 9.782800
				CHANNELS 3 Xrotation Yrotation Zrotation
				JOINT RightFoot
				{
					OFFSET 0.524587 -53.427383 -12.948300
					CHANNELS 3 Xrotation Yrotation Zrotation
					JOINT RightToeBase
					{
						OFFSET -0.192200 -14.009700 16.364100
						CHANNELS 3 Xrotation Yrotation Zrotation
						JOINT RightToe_End
						{
							OFFSET 1.784700 -0.561700 9.474800
							CHANNELS 3 Xrotation Yrotation Zrotation
							End Site
							{
								OFFSET 0 0 0
							}
						}
					}
				}
			}
		}
	}
	JOINT Spine_virtual
	{
		OFFSET 0.000000 0.000000 0.000000
		CHANNELS 3 Xrotation Yrotation Zrotation
		JOINT Spine
		{
			OFFSET 0.072000 7.257294 -0.789700
			CHANNELS 3 Xrotation Yrotation Zrotation
			JOINT Spine1
			{
				OFFSET 0.000000 12.508769 -0.658067
				CHANNELS 3 Xrotation Yrotation Zrotation
				JOINT Spine1_split
				{
					OFFSET 0.000000 12.508769 -0.658067
					CHANNELS 3 Xrotation Yrotation Zrotation
					JOINT Spine2
					{
						OFFSET 0.000000 12.508769 -0.658067
						CHANNELS 3 Xrotation Yrotation Zrotation
						JOINT Neck_virtual
						{
							OFFSET 0.000000 0.000000 0.000000
							CHANNELS 3 Xrotation Yrotation Zrotation
							JOINT Neck
							{
								OFFSET 0.000000 14.033295 7.520400
								CHANNELS 3 Xrotation Yrotation Zrotation
								JOINT Head
								{
									OFFSET 0.000000 8.198502 5.703100
									CHANNELS 3 Xrotation Yrotation Zrotation
									JOINT HeadTop_End
									{
										OFFSET 0.000000 17.760803 13.332701
										CHANNELS 3 Xrotation Yrotation Zrotation
										End Site
										{
											OFFSET 0 0 0
										}
									}
								}
							}
						}
						JOINT LeftShoulder_virtual
						{
							OFFSET 0.000000 0.000000 0.000000
							CHANNELS 3 Xrotation Yrotation Zrotation
							JOINT LeftShoulder
							{
								OFFSET 6.292450 5.785301 -0.669000
								CHANNELS 3 Xrotation Yrotation Zrotation
								JOINT LeftShoulder_split
								{
									OFFSET 6.292450 5.785301 -0.669000
									CHANNELS 3 Xrotation Yrotation Zrotation
									JOINT LeftArm
									{
										OFFSET 13.907140 -6.093903 1.965100
										CHANNELS 3 Xrotation Yrotation Zrotation
										JOINT LeftForeArm
										{
											OFFSET 34.140198 0.000000 0.000000
											CHANNELS 3 Xrotation Yrotation Zrotation
											JOINT LeftHand
											{
												OFFSET 40.960209 0.000000 0.000000
												CHANNELS 3 Xrotation Yrotation Zrotation
												End Site
												{
													OFFSET 0 0 0
												}
											}
										}
									}
								}
							}
						}
						JOINT RightShoulder_virtual
						{
							OFFSET 0.000000 0.000000 0.000000
							CHANNELS 3 Xrotation Yrotation Zrotation
							JOINT RightShoulder
							{
								OFFSET -6.292450 5.785301 -0.669000
								CHANNELS 3 Xrotation Yrotation Zrotation
								JOINT RightShoulder_split
								{
									OFFSET -6.292450 5.785301 -0.669000
									CHANNELS 3 Xrotation Yrotation Zrotation
									JOINT RightArm
									{
										OFFSET -13.907140 -6.093903 1.965100
										CHANNELS 3 Xrotation Yrotation Zrotation
										JOINT RightForeArm
										{
											OFFSET -34.140198 0.000000 0.000000
											CHANNELS 3 Xrotation Yrotation Zrotation
											JOINT RightHand
											{
												OFFSET -40.960209 0.000000 0.000000
												CHANNELS 3 Xrotation Yrotation Zrotation
												End Site
												{
													OFFSET 0 0 0
												}
											}
										}
									}
								}
							}
						}
					}
				}
			}
		}
	}
}
MOTION
Frames: 5
Frame Time: 0.03333333
5.036790 117.184189 -4.165627 0.000000 0.000000 0.000000 -1.992821 -16.524603 -1.264125 -21.106792 22.940017 18.241497 31.400466 10.325636 0.847304 2.181509 1.967569 -5.523135 -4.645081 -0.138819 -0.523049 0.000000 0.000000 0.000000 -1.097691 -15.246080 -1.898943 -14.859290 -4.570917 1.125480 26.554415 1.370153 -1.424941 -0.097719 1.267992 -2.072120 -2.173929 -0.203677 1.871316 0.000000 0.000000 0.000000 -3.034501 -19.863865 -2.473115 2.754675 -0.044444 0.579080 0.682834 -0.327799 3.183430 -0.043187 1.401799 -0.070670 0.000000 0.000000 0.000000 0.848497 -1.528043 2.538092 4.454820 -6.155988 -2.582774 6.262232 23.235662 -11.150107 0.000000 0.000000 0.000000 0.363707 -1.344988 2.906665 4.528613 6.483900 2.475687 5.752870 7.876987 -2.834308 -6.928585 -40.167963 -68.829831 -12.906751 -26.819002 -2.810869 0.000000 0.000000 0.000000 0.470187 -0.910967 3.393112 -1.380596 -0.745947 3.143396 -1.366674 4.291970 0.613018 6.739584 8.445791 78.336765 -6.160627 27.600525 5.157099 0.000000 0.000000 0.000000 
5.456015 115.942680 -5.128494 0.000000 0.000000 0.000000 -1.582016 -16.342286 -1.552739 -20.525051 23.610311 18.730120 31.875294 9.515924 0.527655 0.261447 2.048498 -5.112327 -3.726335 -0.189440 -0.678720 0.000000 0.000000 0.000000 -0.868695 -15.408885 -2.077935 -16.624255 -4.532816 0.816879 23.656251 1.503976 -1.034163 1.504645 2.298848 -1.187409 -4.601018 -0.246224 1.643553 0.000000 0.000000 0.000000 -2.981720 -21.035753 -2.903939 3.618112 -0.385091 0.656805 1.091658 -0.510113 3.155024 0.646024 0.907979 0.101578 0.000000 0.000000 0.000000 1.497742 -1.518429 2.536872 3.642642 -5.764935 -2.222811 5.095722 23.131269 -10.885456 0.000000 0.000000 0.000000 0.689653 -1.347147 2.841564 4.795302 6.596485 3.041771 5.928562 6.679271 -0.742811 -4.838663 -40.276898 -69.015435 -10.960030 -25.490346 -2.507108 0.000000 0.000000 0.000000 0.810640 -0.988630 3.422326 -1.198478 -0.375554 2.915059 -1.245728 6.372227 -0.326143 6.131373 9.377830 77.354310 -4.765283 25.805327 4.142814 0.000000 0.000000 0.000000 
5.556462 114.511658 -5.739311 0.000000 0.000000 0.000000 -1.455208 -17.429015 -2.532967 -20.764521 25.930231 20.881358 32.696624 7.738515 -0.075259 -2.688786 2.357842 -6.344391 -3.261073 -0.183929 -0.935785 0.000000 0.000000 0.000000 -1.078662 -17.501460 -2.958365 -19.546178 -5.081096 -0.055115 21.479010 2.115041 -0.249792 4.713457 4.559658 0.533821 -5.636715 -0.057049 0.973962 0.000000 0.000000 0.000000 -2.922273 -23.045427 -3.733759 5.087037 -0.992640 0.811294 1.691165 -0.846616 2.834209 0.829428 0.718683 -0.133997 0.000000 0.000000 0.000000 2.314489 -1.636668 2.296314 2.224653 -5.066849 -2.130903 2.331305 23.975755 -10.601075 0.000000 0.000000 0.000000 1.414651 -1.442834 2.372481 5.499712 6.232418 4.151902 5.665352 6.235345 1.642771 0.822917 -41.961370 -67.111424 -11.724722 -30.073340 -4.243307 0.000000 0.000000 0.000000 1.671230 -1.183791 3.073364 -0.881930 0.076893 2.539566 -0.604080 7.043044 -1.284734 4.258600 12.106480 75.926350 -2.845620 24.601513 3.138884 0.000000 0.000000 0.000000 
5.429266 113.445953 -5.950100 0.000000 0.000000 0.000000 -1.581003 -20.088771 -3.917009 -21.790682 29.848207 24.452344 33.297736 5.518898 -0.907326 -5.586417 2.961868 -8.744285 -4.366031 -0.171894 -0.869096 0.000000 0.000000 0.000000 -1.388354 -20.951446 -4.352425 -22.879870 -5.967170 -1.353619 20.782375 2.935726 0.637130 8.115475 7.430647 2.808440 -5.131975 0.280796 0.117066 0.000000 0.000000 0.000000 -2.601713 -25.634465 -4.798394 6.756451 -1.733876 0.998969 2.403541 -1.274582 2.320516 0.748590 0.703116 -0.396554 0.000000 0.000000 0.000000 3.249584 -1.884190 1.906741 0.469446 -4.080030 -2.269951 -1.367575 25.450521 -10.189038 0.000000 0.000000 0.000000 2.341592 -1.629911 1.652494 6.534348 5.899607 6.037871 5.173969 5.667741 3.313711 10.353698 -44.212241 -63.032169 -16.274490 -41.406379 -9.155440 0.000000 0.000000 0.000000 2.859125 -1.472559 2.474234 -0.485893 0.460906 2.168951 0.316509 6.025953 -2.100847 1.520551 15.399462 74.295164 -0.960333 25.505398 2.444695 0.000000 0.000000 0.000000 
5.088351 112.689140 -5.577892 0.000000 0.000000 0.000000 -1.870275 -24.070065 -5.445766 -23.305608 34.955884 28.904312 33.711990 3.521057 -1.789729 -8.077475 4.339532 -10.963122 -6.005519 -0.227590 -0.581384 0.000000 0.000000 0.000000 -1.683872 -25.205780 -5.964296 -25.578444 -6.944383 -2.842349 21.532486 3.384703 1.210761 9.952555 9.372872 4.594540 -4.302776 0.570221 -0.514590 0.000000 0.000000 0.000000 -2.113010 -28.755032 -5.942025 8.255237 -2.445559 1.176187 3.159126 -1.736186 1.743542 0.494768 1.218802 -0.656374 0.000000 0.000000 0.000000 4.137613 -2.194338 1.493736 -1.064427 -2.937921 -2.368831 -5.064733 27.329603 -9.670856 0.000000 0.000000 0.000000 3.293031 -1.841797 0.895258 7.854150 5.947581 8.524357 4.461751 4.184474 4.242490 23.383441 -45.554329 -57.586356 -29.042200 -57.808952 -22.085275 0.000000 0.000000 0.000000 4.168051 -1.790154 1.789123 0.007775 0.799670 1.861686 1.247432 3.986089 -2.838346 -1.377360 17.954884 72.533187 0.442989 29.920327 2.182804 0.000000 0.000000 0.000000 
